<?xml version="1.0" standalone="no"?>
<!DOCTYPE svg PUBLIC "-//W3C//DTD SVG 20010904//EN"
 "http://www.w3.org/TR/2001/REC-SVG-20010904/DTD/svg10.dtd">
<svg version="1.0" xmlns="http://www.w3.org/2000/svg"
 width="260.000000pt" height="260.000000pt" viewBox="0 0 260.000000 260.000000"
 preserveAspectRatio="xMidYMid meet">
<g fill="#000000" stroke="none">
  <path d="M0,0v260h260V0H0z M142.41,40.53c40.05,5.55,71.54,37.04,77.09,77.1h-40.69c-6.8-26.96-34.17-43.3-61.12-36.5
	c-17.94,4.53-31.96,18.55-36.5,36.5h-40.7C47.35,68.18,92.97,33.67,142.41,40.53z M155.91,130.03c0,14.3-11.61,25.911-25.91,25.911
	s-25.91-11.61-25.91-25.911c0-14.31,11.61-25.91,25.91-25.91h0.02C144.32,104.12,155.91,115.72,155.91,130.03z M142.08,219.52
	c-49.45,6.671-94.95-28.01-101.62-77.46h40.69c4.47,18.2,18.67,32.41,36.86,36.87c27.01,6.641,54.271-9.88,60.891-36.87h40.64
	C214.11,182.37,182.39,214.08,142.08,219.52z"/>
</g>
</svg>